<?xml version="1.0" encoding="utf-8"?>
<svg id="master-artboard" viewBox="0 0 120 120" version="1.1" xmlns="http://www.w3.org/2000/svg" x="0px" y="0px" style="enable-background:new 0 0 120 120;" width="120px" height="120px" xmlns:xlink="http://www.w3.org/1999/xlink">

<defs>
		<path d="M 0 0 H 120 V 120 H 0 V 0 Z" id="SVGID_1_"/>
	</defs><clipPath id="SVGID_2_">
		<use style="overflow:visible;" xlink:href="#SVGID_1_"/>
	</clipPath><path d="M 0 0 H 120 V 120 H 0 V 0 Z" class="st0" style="clip-path: url('#SVGID_2_'); fill-rule: evenodd; clip-rule: evenodd; fill: rgb(255, 213, 161);" transform="matrix(1, 0, 0, 1, 0, 0)"/><path class="st1" d="M43.9,64.9h47.6v18.7c0,6.5-5.3,11.7-11.7,11.7H55.7c-6.5,0-11.7-5.3-11.7-11.7V64.9z" style="opacity: 0.27; clip-path: url('#SVGID_2_'); fill-rule: evenodd; clip-rule: evenodd; fill: rgb(99, 93, 84);" transform="matrix(1, 0, 0, 1, 0, 0)"/><path class="st1" d="M43.9,64.9h47.6v-9.4c0-3.2-2.6-5.9-5.9-5.9H49.8c-3.2,0-5.9,2.6-5.9,5.9V64.9z" style="opacity: 0.27; clip-path: url('#SVGID_2_'); fill-rule: evenodd; clip-rule: evenodd; fill: rgb(99, 93, 84);" transform="matrix(1, 0, 0, 1, 0, 0)"/><path class="st2" d="M13.3,28.4L24.9,23L34,42.5l-11.6,5.4c-1.1,0.5-2.4,0-3-1.1l-7.2-15.4C11.7,30.3,12.2,29,13.3,28.4" style="clip-path: url('#SVGID_2_'); fill-rule: evenodd; clip-rule: evenodd; fill: rgb(224, 159, 61);" transform="matrix(1, 0, 0, 1, 0, 0)"/><path class="st3" d="M13.5,28l11.6-5.4L34.2,42l-11.6,5.4c-1.1,0.5-2.4,0-3-1.1L12.4,31C11.9,29.9,12.4,28.5,13.5,28" style="clip-path: url('#SVGID_2_'); fill-rule: evenodd; clip-rule: evenodd; fill: rgb(230, 230, 230);" transform="matrix(1, 0, 0, 1, 0, 0)"/><path class="st3" d="M100,73.8c1.9-3.1,6-4,9.1-2.1c3.1,1.9,4,6,2.1,9.1c-2,3.1-6,4-9.1,2.1C99,80.9,98.1,76.9,100,73.8" style="clip-path: url('#SVGID_2_'); fill-rule: evenodd; clip-rule: evenodd; fill: rgb(230, 230, 230);" transform="matrix(1, 0, 0, 1, 0, 0)"/><path d="M 15.9 53.900002 H 46.799999 V 77.200001 H 15.9 V 53.900002 Z" transform="matrix(0.32940003275871277, -0.9442000389099121, 0.9442000389099121, 0.32940003275871277, -40.87179946899411, 73.59559631347655)" class="st4" style="clip-path: url('#SVGID_2_'); fill-rule: evenodd; clip-rule: evenodd; fill: rgb(204, 204, 204);"/><path d="M 4.1 61.5 H 27.399999 V 92.4 H 4.1 V 61.5 Z" transform="matrix(0.9868999719619751, -0.16140000522136688, 0.16140000522136688, 0.9868999719619751, -12.214799880981417, 3.5511999130249023)" class="st3" style="clip-path: url('#SVGID_2_'); fill-rule: evenodd; clip-rule: evenodd; fill: rgb(255, 207, 217);"/><path d="M 45 39 H 87.5 V 43.9 H 45 V 39 Z" class="st5" style="clip-path: url('#SVGID_2_'); fill-rule: evenodd; clip-rule: evenodd; fill: rgb(243, 166, 166);" transform="matrix(1, 0, 0, 1, 0, 0)"/><path d="M 48.200001 43.799999 H 84.299999 V 48.699999 H 48.200001 V 43.799999 Z" class="st5" style="clip-path: url('#SVGID_2_'); fill-rule: evenodd; clip-rule: evenodd; fill: rgb(77, 77, 77);" transform="matrix(1, 0, 0, 1, 0, 0)"/><path d="M 52.799999 17.9 H 80.099998 V 48.799999 H 52.799999 V 17.9 Z" class="st3" style="clip-path: url('#SVGID_2_'); fill-rule: evenodd; clip-rule: evenodd; fill: rgb(230, 230, 230);" transform="matrix(1, 0, 0, 1, 0, 0)"/><path class="st6" d="M42.4,64H90v18.7c0,6.5-5.3,11.7-11.7,11.7H54.2c-6.5,0-11.7-5.3-11.7-11.7V64z" style="clip-path: url('#SVGID_2_'); fill-rule: evenodd; clip-rule: evenodd; fill: rgb(243, 166, 166);" transform="matrix(1, 0, 0, 1, 0, 0)"/><path class="st7" d="M43.8,70h44.9v12.1c0,4.2-3.4,7.6-7.6,7.6H51.4c-4.2,0-7.6-3.4-7.6-7.6V70z" style="clip-path: url('#SVGID_2_'); fill-rule: evenodd; clip-rule: evenodd; fill: rgb(40, 47, 57);" transform="matrix(1, 0, 0, 1, 0, 0)"/><path class="st8" d="M45.8,71.5h2.3c0.1,0,0.2,0.1,0.2,0.2V74c0,0.1-0.1,0.2-0.2,0.2h-2.3c-0.1,0-0.2-0.1-0.2-0.2v-2.2&#10;&#9;&#9;C45.5,71.6,45.7,71.5,45.8,71.5" style="clip-path: url('#SVGID_2_'); fill-rule: evenodd; clip-rule: evenodd; fill: rgb(204, 255, 204);" transform="matrix(1, 0, 0, 1, 0, 0)"/><path class="st8" d="M49.4,71.5h2.3c0.1,0,0.2,0.1,0.2,0.2V74c0,0.1-0.1,0.2-0.2,0.2h-2.3c-0.1,0-0.2-0.1-0.2-0.2v-2.2&#10;&#9;&#9;C49.1,71.6,49.2,71.5,49.4,71.5" style="clip-path: url('#SVGID_2_'); fill-rule: evenodd; clip-rule: evenodd; fill: rgb(204, 255, 204);" transform="matrix(1, 0, 0, 1, 0, 0)"/><path class="st8" d="M53,71.5h2.3c0.1,0,0.2,0.1,0.2,0.2V74c0,0.1-0.1,0.2-0.2,0.2H53c-0.1,0-0.2-0.1-0.2-0.2v-2.2&#10;&#9;&#9;C52.7,71.6,52.8,71.5,53,71.5" style="clip-path: url('#SVGID_2_'); fill-rule: evenodd; clip-rule: evenodd; fill: rgb(204, 255, 204);" transform="matrix(1, 0, 0, 1, 0, 0)"/><path class="st8" d="M56.5,71.5h2.3c0.1,0,0.2,0.1,0.2,0.2V74c0,0.1-0.1,0.2-0.2,0.2h-2.3c-0.1,0-0.2-0.1-0.2-0.2v-2.2&#10;&#9;&#9;C56.3,71.6,56.4,71.5,56.5,71.5" style="clip-path: url('#SVGID_2_'); fill-rule: evenodd; clip-rule: evenodd; fill: rgb(204, 255, 204);" transform="matrix(1, 0, 0, 1, 0, 0)"/><path class="st8" d="M60.1,71.5h2.3c0.1,0,0.2,0.1,0.2,0.2V74c0,0.1-0.1,0.2-0.2,0.2h-2.3c-0.1,0-0.2-0.1-0.2-0.2v-2.2&#10;&#9;&#9;C59.9,71.6,60,71.5,60.1,71.5" style="clip-path: url('#SVGID_2_'); fill-rule: evenodd; clip-rule: evenodd; fill: rgb(204, 255, 204);" transform="matrix(1, 0, 0, 1, 0, 0)"/><path class="st8" d="M63.7,71.5H66c0.1,0,0.2,0.1,0.2,0.2V74c0,0.1-0.1,0.2-0.2,0.2h-2.3c-0.1,0-0.2-0.1-0.2-0.2v-2.2&#10;&#9;&#9;C63.4,71.6,63.6,71.5,63.7,71.5" style="clip-path: url('#SVGID_2_'); fill-rule: evenodd; clip-rule: evenodd; fill: rgb(204, 255, 204);" transform="matrix(1, 0, 0, 1, 0, 0)"/><path class="st8" d="M67.3,71.5h2.3c0.1,0,0.2,0.1,0.2,0.2V74c0,0.1-0.1,0.2-0.2,0.2h-2.3c-0.1,0-0.2-0.1-0.2-0.2v-2.2&#10;&#9;&#9;C67,71.6,67.1,71.5,67.3,71.5" style="clip-path: url('#SVGID_2_'); fill-rule: evenodd; clip-rule: evenodd; fill: rgb(204, 255, 204);" transform="matrix(1, 0, 0, 1, 0, 0)"/><path class="st8" d="M70.9,71.5h2.3c0.1,0,0.2,0.1,0.2,0.2V74c0,0.1-0.1,0.2-0.2,0.2h-2.3c-0.1,0-0.2-0.1-0.2-0.2v-2.2&#10;&#9;&#9;C70.6,71.6,70.7,71.5,70.9,71.5" style="clip-path: url('#SVGID_2_'); fill-rule: evenodd; clip-rule: evenodd; fill: rgb(204, 255, 204);" transform="matrix(1, 0, 0, 1, 0, 0)"/><path class="st8" d="M74.4,71.5h2.3c0.1,0,0.2,0.1,0.2,0.2V74c0,0.1-0.1,0.2-0.2,0.2h-2.3c-0.1,0-0.2-0.1-0.2-0.2v-2.2&#10;&#9;&#9;C74.2,71.6,74.3,71.5,74.4,71.5" style="clip-path: url('#SVGID_2_'); fill-rule: evenodd; clip-rule: evenodd; fill: rgb(204, 255, 204);" transform="matrix(1, 0, 0, 1, 0, 0)"/><path class="st8" d="M78,71.5h2.3c0.1,0,0.2,0.1,0.2,0.2V74c0,0.1-0.1,0.2-0.2,0.2H78c-0.1,0-0.2-0.1-0.2-0.2v-2.2&#10;&#9;&#9;C77.8,71.6,77.9,71.5,78,71.5" style="clip-path: url('#SVGID_2_'); fill-rule: evenodd; clip-rule: evenodd; fill: rgb(204, 255, 204);" transform="matrix(1, 0, 0, 1, 0, 0)"/><path class="st8" d="M81.6,71.5h2.3c0.1,0,0.2,0.1,0.2,0.2V74c0,0.1-0.1,0.2-0.2,0.2h-2.3c-0.1,0-0.2-0.1-0.2-0.2v-2.2&#10;&#9;&#9;C81.4,71.6,81.5,71.5,81.6,71.5" style="clip-path: url('#SVGID_2_'); fill-rule: evenodd; clip-rule: evenodd; fill: rgb(204, 255, 204);" transform="matrix(1, 0, 0, 1, 0, 0)"/><path class="st8" d="M85.2,71.5h2.3c0.1,0,0.2,0.1,0.2,0.2V74c0,0.1-0.1,0.2-0.2,0.2h-2.3c-0.1,0-0.2-0.1-0.2-0.2v-2.2&#10;&#9;&#9;C84.9,71.6,85,71.5,85.2,71.5" style="clip-path: url('#SVGID_2_'); fill-rule: evenodd; clip-rule: evenodd; fill: rgb(204, 255, 204);" transform="matrix(1, 0, 0, 1, 0, 0)"/><path class="st8" d="M46.5,74.9h3c0.1,0,0.2,0.1,0.2,0.2v2c0,0.1-0.1,0.2-0.2,0.2h-3c-0.1,0-0.2-0.1-0.2-0.2v-2&#10;&#9;&#9;C46.3,75,46.4,74.9,46.5,74.9" style="clip-path: url('#SVGID_2_'); fill-rule: evenodd; clip-rule: evenodd; fill: rgb(204, 255, 204);" transform="matrix(1, 0, 0, 1, 0, 0)"/><path class="st8" d="M50.7,74.9h3c0.1,0,0.2,0.1,0.2,0.2v2c0,0.1-0.1,0.2-0.2,0.2h-3c-0.1,0-0.2-0.1-0.2-0.2v-2&#10;&#9;&#9;C50.4,75,50.5,74.9,50.7,74.9" style="clip-path: url('#SVGID_2_'); fill-rule: evenodd; clip-rule: evenodd; fill: rgb(204, 255, 204);" transform="matrix(1, 0, 0, 1, 0, 0)"/><path class="st8" d="M54.8,74.9h3c0.1,0,0.2,0.1,0.2,0.2v2c0,0.1-0.1,0.2-0.2,0.2h-3c-0.1,0-0.2-0.1-0.2-0.2v-2&#10;&#9;&#9;C54.5,75,54.6,74.9,54.8,74.9" style="clip-path: url('#SVGID_2_'); fill-rule: evenodd; clip-rule: evenodd; fill: rgb(204, 255, 204);" transform="matrix(1, 0, 0, 1, 0, 0)"/><path class="st8" d="M58.9,74.9h3c0.1,0,0.2,0.1,0.2,0.2v2c0,0.1-0.1,0.2-0.2,0.2h-3c-0.1,0-0.2-0.1-0.2-0.2v-2&#10;&#9;&#9;C58.7,75,58.8,74.9,58.9,74.9" style="clip-path: url('#SVGID_2_'); fill-rule: evenodd; clip-rule: evenodd; fill: rgb(204, 255, 204);" transform="matrix(1, 0, 0, 1, 0, 0)"/><path class="st8" d="M63,74.9h3c0.1,0,0.2,0.1,0.2,0.2v2c0,0.1-0.1,0.2-0.2,0.2h-3c-0.1,0-0.2-0.1-0.2-0.2v-2&#10;&#9;&#9;C62.8,75,62.9,74.9,63,74.9" style="clip-path: url('#SVGID_2_'); fill-rule: evenodd; clip-rule: evenodd; fill: rgb(204, 255, 204);" transform="matrix(1, 0, 0, 1, 0, 0)"/><path class="st8" d="M67.1,74.9h3c0.1,0,0.2,0.1,0.2,0.2v2c0,0.1-0.1,0.2-0.2,0.2h-3c-0.1,0-0.2-0.1-0.2-0.2v-2&#10;&#9;&#9;C66.9,75,67,74.9,67.1,74.9" style="clip-path: url('#SVGID_2_'); fill-rule: evenodd; clip-rule: evenodd; fill: rgb(204, 255, 204);" transform="matrix(1, 0, 0, 1, 0, 0)"/><path class="st8" d="M71.2,74.9h3c0.1,0,0.2,0.1,0.2,0.2v2c0,0.1-0.1,0.2-0.2,0.2h-3c-0.1,0-0.2-0.1-0.2-0.2v-2&#10;&#9;&#9;C71,75,71.1,74.9,71.2,74.9" style="clip-path: url('#SVGID_2_'); fill-rule: evenodd; clip-rule: evenodd; fill: rgb(204, 255, 204);" transform="matrix(1, 0, 0, 1, 0, 0)"/><path class="st8" d="M75.3,74.9h3c0.1,0,0.2,0.1,0.2,0.2v2c0,0.1-0.1,0.2-0.2,0.2h-3c-0.1,0-0.2-0.1-0.2-0.2v-2&#10;&#9;&#9;C75.1,75,75.2,74.9,75.3,74.9" style="clip-path: url('#SVGID_2_'); fill-rule: evenodd; clip-rule: evenodd; fill: rgb(204, 255, 204);" transform="matrix(1, 0, 0, 1, 0, 0)"/><path class="st8" d="M79.4,74.9h3c0.1,0,0.2,0.1,0.2,0.2v2c0,0.1-0.1,0.2-0.2,0.2h-3c-0.1,0-0.2-0.1-0.2-0.2v-2&#10;&#9;&#9;C79.2,75,79.3,74.9,79.4,74.9" style="clip-path: url('#SVGID_2_'); fill-rule: evenodd; clip-rule: evenodd; fill: rgb(204, 255, 204);" transform="matrix(1, 0, 0, 1, 0, 0)"/><path class="st8" d="M83.6,74.9h3c0.1,0,0.2,0.1,0.2,0.2v2c0,0.1-0.1,0.2-0.2,0.2h-3c-0.1,0-0.2-0.1-0.2-0.2v-2&#10;&#9;&#9;C83.3,75,83.4,74.9,83.6,74.9" style="clip-path: url('#SVGID_2_'); fill-rule: evenodd; clip-rule: evenodd; fill: rgb(204, 255, 204);" transform="matrix(1, 0, 0, 1, 0, 0)"/><path class="st8" d="M46.5,78h3c0.1,0,0.2,0.1,0.2,0.2v2c0,0.1-0.1,0.2-0.2,0.2h-3c-0.1,0-0.2-0.1-0.2-0.2v-2&#10;&#9;&#9;C46.3,78.1,46.4,78,46.5,78" style="clip-path: url('#SVGID_2_'); fill-rule: evenodd; clip-rule: evenodd; fill: rgb(204, 255, 204);" transform="matrix(1, 0, 0, 1, 0, 0)"/><path class="st8" d="M50.7,78h3c0.1,0,0.2,0.1,0.2,0.2v2c0,0.1-0.1,0.2-0.2,0.2h-3c-0.1,0-0.2-0.1-0.2-0.2v-2&#10;&#9;&#9;C50.4,78.1,50.5,78,50.7,78" style="clip-path: url('#SVGID_2_'); fill-rule: evenodd; clip-rule: evenodd; fill: rgb(204, 255, 204);" transform="matrix(1, 0, 0, 1, 0, 0)"/><path class="st8" d="M54.8,78h3c0.1,0,0.2,0.1,0.2,0.2v2c0,0.1-0.1,0.2-0.2,0.2h-3c-0.1,0-0.2-0.1-0.2-0.2v-2&#10;&#9;&#9;C54.5,78.1,54.6,78,54.8,78" style="clip-path: url('#SVGID_2_'); fill-rule: evenodd; clip-rule: evenodd; fill: rgb(204, 255, 204);" transform="matrix(1, 0, 0, 1, 0, 0)"/><path class="st8" d="M58.9,78h3c0.1,0,0.2,0.1,0.2,0.2v2c0,0.1-0.1,0.2-0.2,0.2h-3c-0.1,0-0.2-0.1-0.2-0.2v-2&#10;&#9;&#9;C58.7,78.1,58.8,78,58.9,78" style="clip-path: url('#SVGID_2_'); fill-rule: evenodd; clip-rule: evenodd; fill: rgb(204, 255, 204);" transform="matrix(1, 0, 0, 1, 0, 0)"/><path class="st8" d="M63,78h3c0.1,0,0.2,0.1,0.2,0.2v2c0,0.1-0.1,0.2-0.2,0.2h-3c-0.1,0-0.2-0.1-0.2-0.2v-2&#10;&#9;&#9;C62.8,78.1,62.9,78,63,78" style="clip-path: url('#SVGID_2_'); fill-rule: evenodd; clip-rule: evenodd; fill: rgb(204, 255, 204);" transform="matrix(1, 0, 0, 1, 0, 0)"/><path class="st8" d="M67.1,78h3c0.1,0,0.2,0.1,0.2,0.2v2c0,0.1-0.1,0.2-0.2,0.2h-3c-0.1,0-0.2-0.1-0.2-0.2v-2&#10;&#9;&#9;C66.9,78.1,67,78,67.1,78" style="clip-path: url('#SVGID_2_'); fill-rule: evenodd; clip-rule: evenodd; fill: rgb(204, 255, 204);" transform="matrix(1, 0, 0, 1, 0, 0)"/><path class="st8" d="M71.2,78h3c0.1,0,0.2,0.1,0.2,0.2v2c0,0.1-0.1,0.2-0.2,0.2h-3c-0.1,0-0.2-0.1-0.2-0.2v-2&#10;&#9;&#9;C71,78.1,71.1,78,71.2,78" style="clip-path: url('#SVGID_2_'); fill-rule: evenodd; clip-rule: evenodd; fill: rgb(204, 255, 204);" transform="matrix(1, 0, 0, 1, 0, 0)"/><path class="st8" d="M75.3,78h3c0.1,0,0.2,0.1,0.2,0.2v2c0,0.1-0.1,0.2-0.2,0.2h-3c-0.1,0-0.2-0.1-0.2-0.2v-2&#10;&#9;&#9;C75.1,78.1,75.2,78,75.3,78" style="clip-path: url('#SVGID_2_'); fill-rule: evenodd; clip-rule: evenodd; fill: rgb(204, 255, 204);" transform="matrix(1, 0, 0, 1, 0, 0)"/><path class="st8" d="M79.4,78h3c0.1,0,0.2,0.1,0.2,0.2v2c0,0.1-0.1,0.2-0.2,0.2h-3c-0.1,0-0.2-0.1-0.2-0.2v-2&#10;&#9;&#9;C79.2,78.1,79.3,78,79.4,78" style="clip-path: url('#SVGID_2_'); fill-rule: evenodd; clip-rule: evenodd; fill: rgb(204, 255, 204);" transform="matrix(1, 0, 0, 1, 0, 0)"/><path class="st8" d="M83.6,78h3c0.1,0,0.2,0.1,0.2,0.2v2c0,0.1-0.1,0.2-0.2,0.2h-3c-0.1,0-0.2-0.1-0.2-0.2v-2&#10;&#9;&#9;C83.3,78.1,83.4,78,83.6,78" style="clip-path: url('#SVGID_2_'); fill-rule: evenodd; clip-rule: evenodd; fill: rgb(204, 255, 204);" transform="matrix(1, 0, 0, 1, 0, 0)"/><path class="st8" d="M46.5,81.1h3c0.1,0,0.2,0.1,0.2,0.2v2c0,0.1-0.1,0.2-0.2,0.2h-3c-0.1,0-0.2-0.1-0.2-0.2v-2&#10;&#9;&#9;C46.3,81.2,46.4,81.1,46.5,81.1" style="clip-path: url('#SVGID_2_'); fill-rule: evenodd; clip-rule: evenodd; fill: rgb(204, 255, 204);" transform="matrix(1, 0, 0, 1, 0, 0)"/><path class="st8" d="M50.7,81.1h3c0.1,0,0.2,0.1,0.2,0.2v2c0,0.1-0.1,0.2-0.2,0.2h-3c-0.1,0-0.2-0.1-0.2-0.2v-2&#10;&#9;&#9;C50.4,81.2,50.5,81.1,50.7,81.1" style="clip-path: url('#SVGID_2_'); fill-rule: evenodd; clip-rule: evenodd; fill: rgb(204, 255, 204);" transform="matrix(1, 0, 0, 1, 0, 0)"/><path class="st8" d="M54.8,81.1h3c0.1,0,0.2,0.1,0.2,0.2v2c0,0.1-0.1,0.2-0.2,0.2h-3c-0.1,0-0.2-0.1-0.2-0.2v-2&#10;&#9;&#9;C54.5,81.2,54.6,81.1,54.8,81.1" style="clip-path: url('#SVGID_2_'); fill-rule: evenodd; clip-rule: evenodd; fill: rgb(204, 255, 204);" transform="matrix(1, 0, 0, 1, 0, 0)"/><path class="st8" d="M58.9,81.1h3c0.1,0,0.2,0.1,0.2,0.2v2c0,0.1-0.1,0.2-0.2,0.2h-3c-0.1,0-0.2-0.1-0.2-0.2v-2&#10;&#9;&#9;C58.7,81.2,58.8,81.1,58.9,81.1" style="clip-path: url('#SVGID_2_'); fill-rule: evenodd; clip-rule: evenodd; fill: rgb(204, 255, 204);" transform="matrix(1, 0, 0, 1, 0, 0)"/><path class="st8" d="M63,81.1h3c0.1,0,0.2,0.1,0.2,0.2v2c0,0.1-0.1,0.2-0.2,0.2h-3c-0.1,0-0.2-0.1-0.2-0.2v-2&#10;&#9;&#9;C62.8,81.2,62.9,81.1,63,81.1" style="clip-path: url('#SVGID_2_'); fill-rule: evenodd; clip-rule: evenodd; fill: rgb(204, 255, 204);" transform="matrix(1, 0, 0, 1, 0, 0)"/><path class="st8" d="M67.1,81.1h3c0.1,0,0.2,0.1,0.2,0.2v2c0,0.1-0.1,0.2-0.2,0.2h-3c-0.1,0-0.2-0.1-0.2-0.2v-2&#10;&#9;&#9;C66.9,81.2,67,81.1,67.1,81.1" style="clip-path: url('#SVGID_2_'); fill-rule: evenodd; clip-rule: evenodd; fill: rgb(204, 255, 204);" transform="matrix(1, 0, 0, 1, 0, 0)"/><path class="st8" d="M71.2,81.1h3c0.1,0,0.2,0.1,0.2,0.2v2c0,0.1-0.1,0.2-0.2,0.2h-3c-0.1,0-0.2-0.1-0.2-0.2v-2&#10;&#9;&#9;C71,81.2,71.1,81.1,71.2,81.1" style="clip-path: url('#SVGID_2_'); fill-rule: evenodd; clip-rule: evenodd; fill: rgb(204, 255, 204);" transform="matrix(1, 0, 0, 1, 0, 0)"/><path class="st8" d="M75.3,81.1h3c0.1,0,0.2,0.1,0.2,0.2v2c0,0.1-0.1,0.2-0.2,0.2h-3c-0.1,0-0.2-0.1-0.2-0.2v-2&#10;&#9;&#9;C75.1,81.2,75.2,81.1,75.3,81.1" style="clip-path: url('#SVGID_2_'); fill-rule: evenodd; clip-rule: evenodd; fill: rgb(204, 255, 204);" transform="matrix(1, 0, 0, 1, 0, 0)"/><path class="st8" d="M79.4,81.1h3c0.1,0,0.2,0.1,0.2,0.2v2c0,0.1-0.1,0.2-0.2,0.2h-3c-0.1,0-0.2-0.1-0.2-0.2v-2&#10;&#9;&#9;C79.2,81.2,79.3,81.1,79.4,81.1" style="clip-path: url('#SVGID_2_'); fill-rule: evenodd; clip-rule: evenodd; fill: rgb(204, 255, 204);" transform="matrix(1, 0, 0, 1, 0, 0)"/><path class="st8" d="M83.6,81.1h3c0.1,0,0.2,0.1,0.2,0.2v2c0,0.1-0.1,0.2-0.2,0.2h-3c-0.1,0-0.2-0.1-0.2-0.2v-2&#10;&#9;&#9;C83.3,81.2,83.4,81.1,83.6,81.1" style="clip-path: url('#SVGID_2_'); fill-rule: evenodd; clip-rule: evenodd; fill: rgb(204, 255, 204);" transform="matrix(1, 0, 0, 1, 0, 0)"/><path class="st8" d="M47,84.2h2.5c0.1,0,0.2,0.1,0.2,0.2v2c0,0.1-0.1,0.2-0.2,0.2H47c-0.1,0-0.2-0.1-0.2-0.2v-2&#10;&#9;&#9;C46.8,84.3,46.9,84.2,47,84.2" style="clip-path: url('#SVGID_2_'); fill-rule: evenodd; clip-rule: evenodd; fill: rgb(204, 255, 204);" transform="matrix(1, 0, 0, 1, 0, 0)"/><path class="st8" d="M50.7,84.2h3c0.1,0,0.2,0.1,0.2,0.2v2c0,0.1-0.1,0.2-0.2,0.2h-3c-0.1,0-0.2-0.1-0.2-0.2v-2&#10;&#9;&#9;C50.4,84.3,50.5,84.2,50.7,84.2" style="clip-path: url('#SVGID_2_'); fill-rule: evenodd; clip-rule: evenodd; fill: rgb(204, 255, 204);" transform="matrix(1, 0, 0, 1, 0, 0)"/><path class="st8" d="M54.8,84.2h3c0.1,0,0.2,0.1,0.2,0.2v2c0,0.1-0.1,0.2-0.2,0.2h-3c-0.1,0-0.2-0.1-0.2-0.2v-2&#10;&#9;&#9;C54.5,84.3,54.6,84.2,54.8,84.2" style="clip-path: url('#SVGID_2_'); fill-rule: evenodd; clip-rule: evenodd; fill: rgb(204, 255, 204);" transform="matrix(1, 0, 0, 1, 0, 0)"/><path class="st8" d="M75.3,84.2h3c0.1,0,0.2,0.1,0.2,0.2v2c0,0.1-0.1,0.2-0.2,0.2h-3c-0.1,0-0.2-0.1-0.2-0.2v-2&#10;&#9;&#9;C75.1,84.3,75.2,84.2,75.3,84.2" style="clip-path: url('#SVGID_2_'); fill-rule: evenodd; clip-rule: evenodd; fill: rgb(204, 255, 204);" transform="matrix(1, 0, 0, 1, 0, 0)"/><path class="st8" d="M79.4,84.2h3c0.1,0,0.2,0.1,0.2,0.2v2c0,0.1-0.1,0.2-0.2,0.2h-3c-0.1,0-0.2-0.1-0.2-0.2v-2&#10;&#9;&#9;C79.2,84.3,79.3,84.2,79.4,84.2" style="clip-path: url('#SVGID_2_'); fill-rule: evenodd; clip-rule: evenodd; fill: rgb(204, 255, 204);" transform="matrix(1, 0, 0, 1, 0, 0)"/><path class="st8" d="M83.6,84.2H86c0.1,0,0.2,0.1,0.2,0.2v2c0,0.1-0.1,0.2-0.2,0.2h-2.5c-0.1,0-0.2-0.1-0.2-0.2v-2&#10;&#9;&#9;C83.3,84.3,83.4,84.2,83.6,84.2" style="clip-path: url('#SVGID_2_'); fill-rule: evenodd; clip-rule: evenodd; fill: rgb(204, 255, 204);" transform="matrix(1, 0, 0, 1, 0, 0)"/><path class="st8" d="M58.9,84.2h15.3c0.1,0,0.2,0.1,0.2,0.2v2c0,0.1-0.1,0.2-0.2,0.2H58.9c-0.1,0-0.2-0.1-0.2-0.2v-2&#10;&#9;&#9;C58.7,84.3,58.8,84.2,58.9,84.2" style="clip-path: url('#SVGID_2_'); fill-rule: evenodd; clip-rule: evenodd; fill: rgb(204, 255, 204);" transform="matrix(1, 0, 0, 1, 0, 0)"/><path class="st9" d="M42.4,64H90v-9.4c0-3.2-2.6-5.9-5.9-5.9H48.3c-3.2,0-5.9,2.6-5.9,5.9V64z" style="clip-path: url('#SVGID_2_'); fill-rule: evenodd; clip-rule: evenodd; fill: rgb(243, 166, 166);" transform="matrix(1, 0, 0, 1, 0, 0)"/><path class="st10" d="M66.9,48.5h-4v1.4l-9.3,5.4c2.8,9.2,23.9,9.2,26.6,0l-9.3-5.4v-1.4H66.9z" style="clip-path: url('#SVGID_2_'); fill-rule: evenodd; clip-rule: evenodd; fill: rgb(255, 255, 204);" transform="matrix(1, 0, 0, 1, 0, 0)"/><path class="st9" d="M61.3,52.2c1.7,5,9.5,5,11.2,0l-2.2-1.5h-6.8L61.3,52.2z" style="clip-path: url('#SVGID_2_'); fill-rule: evenodd; clip-rule: evenodd; fill: rgb(100, 191, 182);" transform="matrix(1, 0, 0, 1, 0, 0)"/><path class="st5" d="M55,55.5c3.6,7.5,20.1,7.5,23.7,0l-5.4-2.8c-1.7,5.4-11.1,5.4-12.8,0L55,55.5z" style="clip-path: url('#SVGID_2_'); fill-rule: evenodd; clip-rule: evenodd; fill: rgb(77, 77, 77);" transform="matrix(1, 0, 0, 1, 0, 0)"/><defs style="clip-path: url('#SVGID_2_');">
			<path id="SVGID_3_" d="M55,55.5c3.6,7.5,20.1,7.5,23.7,0l-5.4-2.8c-1.7,5.4-11.1,5.4-12.8,0L55,55.5z"/>
		</defs><clipPath id="SVGID_4_" style="clip-path: url('#SVGID_2_');">
			<use style="overflow:visible;" xlink:href="#SVGID_3_"/>
		</clipPath><path d="M 66.599998 51.599998 L 54.799999 54.799999" class="st12" style="clip-path: url('#SVGID_4_'); fill: none; stroke: rgb(55, 52, 53); stroke-width: 0.2398; stroke-miterlimit: 2.6131;" transform="matrix(1, 0, 0, 1, 0, 0)"/><path d="M 66.599998 51.599998 L 55 55.5" class="st12" style="clip-path: url('#SVGID_4_'); fill: none; stroke: rgb(55, 52, 53); stroke-width: 0.2398; stroke-miterlimit: 2.6131;" transform="matrix(1, 0, 0, 1, 0, 0)"/><path d="M 66.599998 51.599998 L 55.200001 56.099998" class="st12" style="clip-path: url('#SVGID_4_'); fill: none; stroke: rgb(55, 52, 53); stroke-width: 0.2398; stroke-miterlimit: 2.6131;" transform="matrix(1, 0, 0, 1, 0, 0)"/><path d="M 66.599998 51.599998 L 55.5 56.799999" class="st12" style="clip-path: url('#SVGID_4_'); fill: none; stroke: rgb(55, 52, 53); stroke-width: 0.2398; stroke-miterlimit: 2.6131;" transform="matrix(1, 0, 0, 1, 0, 0)"/><path d="M 66.599998 51.599998 L 55.900002 57.5" class="st12" style="clip-path: url('#SVGID_4_'); fill: none; stroke: rgb(55, 52, 53); stroke-width: 0.2398; stroke-miterlimit: 2.6131;" transform="matrix(1, 0, 0, 1, 0, 0)"/><path d="M 66.599998 51.599998 L 56.200001 58.099998" class="st12" style="clip-path: url('#SVGID_4_'); fill: none; stroke: rgb(55, 52, 53); stroke-width: 0.2398; stroke-miterlimit: 2.6131;" transform="matrix(1, 0, 0, 1, 0, 0)"/><path d="M 66.599998 51.599998 L 56.599998 58.700001" class="st12" style="clip-path: url('#SVGID_4_'); fill: none; stroke: rgb(55, 52, 53); stroke-width: 0.2398; stroke-miterlimit: 2.6131;" transform="matrix(1, 0, 0, 1, 0, 0)"/><path d="M 66.599998 51.599998 L 57.099998 59.299999" class="st12" style="clip-path: url('#SVGID_4_'); fill: none; stroke: rgb(55, 52, 53); stroke-width: 0.2398; stroke-miterlimit: 2.6131;" transform="matrix(1, 0, 0, 1, 0, 0)"/><path d="M 66.599998 51.599998 L 57.5 59.799999" class="st12" style="clip-path: url('#SVGID_4_'); fill: none; stroke: rgb(55, 52, 53); stroke-width: 0.2398; stroke-miterlimit: 2.6131;" transform="matrix(1, 0, 0, 1, 0, 0)"/><path d="M 66.599998 51.599998 L 58 60.400002" class="st12" style="clip-path: url('#SVGID_4_'); fill: none; stroke: rgb(55, 52, 53); stroke-width: 0.2398; stroke-miterlimit: 2.6131;" transform="matrix(1, 0, 0, 1, 0, 0)"/><path d="M 66.599998 51.599998 L 58.599998 60.900002" class="st12" style="clip-path: url('#SVGID_4_'); fill: none; stroke: rgb(55, 52, 53); stroke-width: 0.2398; stroke-miterlimit: 2.6131;" transform="matrix(1, 0, 0, 1, 0, 0)"/><path d="M 66.599998 51.599998 L 59.099998 61.299999" class="st12" style="clip-path: url('#SVGID_4_'); fill: none; stroke: rgb(55, 52, 53); stroke-width: 0.2398; stroke-miterlimit: 2.6131;" transform="matrix(1, 0, 0, 1, 0, 0)"/><path d="M 66.599998 51.599998 L 59.700001 61.700001" class="st12" style="clip-path: url('#SVGID_4_'); fill: none; stroke: rgb(55, 52, 53); stroke-width: 0.2398; stroke-miterlimit: 2.6131;" transform="matrix(1, 0, 0, 1, 0, 0)"/><path d="M 66.599998 51.599998 L 60.299999 62.099998" class="st12" style="clip-path: url('#SVGID_4_'); fill: none; stroke: rgb(55, 52, 53); stroke-width: 0.2398; stroke-miterlimit: 2.6131;" transform="matrix(1, 0, 0, 1, 0, 0)"/><path d="M 66.599998 51.599998 L 61 62.5" class="st12" style="clip-path: url('#SVGID_4_'); fill: none; stroke: rgb(55, 52, 53); stroke-width: 0.2398; stroke-miterlimit: 2.6131;" transform="matrix(1, 0, 0, 1, 0, 0)"/><path d="M 66.599998 51.599998 L 61.599998 62.799999" class="st12" style="clip-path: url('#SVGID_4_'); fill: none; stroke: rgb(55, 52, 53); stroke-width: 0.2398; stroke-miterlimit: 2.6131;" transform="matrix(1, 0, 0, 1, 0, 0)"/><path d="M 66.599998 51.599998 L 62.299999 63.099998" class="st12" style="clip-path: url('#SVGID_4_'); fill: none; stroke: rgb(55, 52, 53); stroke-width: 0.2398; stroke-miterlimit: 2.6131;" transform="matrix(1, 0, 0, 1, 0, 0)"/><path d="M 66.599998 51.599998 L 63 63.299999" class="st12" style="clip-path: url('#SVGID_4_'); fill: none; stroke: rgb(55, 52, 53); stroke-width: 0.2398; stroke-miterlimit: 2.6131;" transform="matrix(1, 0, 0, 1, 0, 0)"/><path d="M 66.599998 51.599998 L 63.700001 63.5" class="st12" style="clip-path: url('#SVGID_4_'); fill: none; stroke: rgb(55, 52, 53); stroke-width: 0.2398; stroke-miterlimit: 2.6131;" transform="matrix(1, 0, 0, 1, 0, 0)"/><path d="M 66.599998 51.599998 L 64.400002 63.700001" class="st12" style="clip-path: url('#SVGID_4_'); fill: none; stroke: rgb(55, 52, 53); stroke-width: 0.2398; stroke-miterlimit: 2.6131;" transform="matrix(1, 0, 0, 1, 0, 0)"/><path d="M 66.599998 51.599998 L 65.099998 63.799999" class="st12" style="clip-path: url('#SVGID_4_'); fill: none; stroke: rgb(55, 52, 53); stroke-width: 0.2398; stroke-miterlimit: 2.6131;" transform="matrix(1, 0, 0, 1, 0, 0)"/><path d="M 66.599998 51.599998 L 65.900002 63.799999" class="st12" style="clip-path: url('#SVGID_4_'); fill: none; stroke: rgb(55, 52, 53); stroke-width: 0.2398; stroke-miterlimit: 2.6131;" transform="matrix(1, 0, 0, 1, 0, 0)"/><path d="M 66.599998 51.599998 L 66.599998 63.900002" class="st12" style="clip-path: url('#SVGID_4_'); fill: none; stroke: rgb(55, 52, 53); stroke-width: 0.2398; stroke-miterlimit: 2.6131;" transform="matrix(1, 0, 0, 1, 0, 0)"/><path d="M 66.599998 51.599998 L 78.400002 54.799999" class="st12" style="clip-path: url('#SVGID_4_'); fill: none; stroke: rgb(55, 52, 53); stroke-width: 0.2398; stroke-miterlimit: 2.6131;" transform="matrix(1, 0, 0, 1, 0, 0)"/><path d="M 66.599998 51.599998 L 78.199997 55.5" class="st12" style="clip-path: url('#SVGID_4_'); fill: none; stroke: rgb(55, 52, 53); stroke-width: 0.2398; stroke-miterlimit: 2.6131;" transform="matrix(1, 0, 0, 1, 0, 0)"/><path d="M 66.599998 51.599998 L 78 56.099998" class="st12" style="clip-path: url('#SVGID_4_'); fill: none; stroke: rgb(55, 52, 53); stroke-width: 0.2398; stroke-miterlimit: 2.6131;" transform="matrix(1, 0, 0, 1, 0, 0)"/><path d="M 66.599998 51.599998 L 77.699997 56.799999" class="st12" style="clip-path: url('#SVGID_4_'); fill: none; stroke: rgb(55, 52, 53); stroke-width: 0.2398; stroke-miterlimit: 2.6131;" transform="matrix(1, 0, 0, 1, 0, 0)"/><path d="M 66.599998 51.599998 L 77.300003 57.5" class="st12" style="clip-path: url('#SVGID_4_'); fill: none; stroke: rgb(55, 52, 53); stroke-width: 0.2398; stroke-miterlimit: 2.6131;" transform="matrix(1, 0, 0, 1, 0, 0)"/><path d="M 66.599998 51.599998 L 77 58.099998" class="st12" style="clip-path: url('#SVGID_4_'); fill: none; stroke: rgb(55, 52, 53); stroke-width: 0.2398; stroke-miterlimit: 2.6131;" transform="matrix(1, 0, 0, 1, 0, 0)"/><path d="M 66.599998 51.599998 L 76.599998 58.700001" class="st12" style="clip-path: url('#SVGID_4_'); fill: none; stroke: rgb(55, 52, 53); stroke-width: 0.2398; stroke-miterlimit: 2.6131;" transform="matrix(1, 0, 0, 1, 0, 0)"/><path d="M 66.599998 51.599998 L 76.099998 59.299999" class="st12" style="clip-path: url('#SVGID_4_'); fill: none; stroke: rgb(55, 52, 53); stroke-width: 0.2398; stroke-miterlimit: 2.6131;" transform="matrix(1, 0, 0, 1, 0, 0)"/><path d="M 66.599998 51.599998 L 75.699997 59.799999" class="st12" style="clip-path: url('#SVGID_4_'); fill: none; stroke: rgb(55, 52, 53); stroke-width: 0.2398; stroke-miterlimit: 2.6131;" transform="matrix(1, 0, 0, 1, 0, 0)"/><path d="M 66.599998 51.599998 L 75.199997 60.400002" class="st12" style="clip-path: url('#SVGID_4_'); fill: none; stroke: rgb(55, 52, 53); stroke-width: 0.2398; stroke-miterlimit: 2.6131;" transform="matrix(1, 0, 0, 1, 0, 0)"/><path d="M 66.599998 51.599998 L 74.599998 60.900002" class="st12" style="clip-path: url('#SVGID_4_'); fill: none; stroke: rgb(55, 52, 53); stroke-width: 0.2398; stroke-miterlimit: 2.6131;" transform="matrix(1, 0, 0, 1, 0, 0)"/><path d="M 66.599998 51.599998 L 74.099998 61.299999" class="st12" style="clip-path: url('#SVGID_4_'); fill: none; stroke: rgb(55, 52, 53); stroke-width: 0.2398; stroke-miterlimit: 2.6131;" transform="matrix(1, 0, 0, 1, 0, 0)"/><path d="M 66.599998 51.599998 L 73.5 61.700001" class="st12" style="clip-path: url('#SVGID_4_'); fill: none; stroke: rgb(55, 52, 53); stroke-width: 0.2398; stroke-miterlimit: 2.6131;" transform="matrix(1, 0, 0, 1, 0, 0)"/><path d="M 66.599998 51.599998 L 72.900002 62.099998" class="st12" style="clip-path: url('#SVGID_4_'); fill: none; stroke: rgb(55, 52, 53); stroke-width: 0.2398; stroke-miterlimit: 2.6131;" transform="matrix(1, 0, 0, 1, 0, 0)"/><path d="M 66.599998 51.599998 L 72.199997 62.5" class="st12" style="clip-path: url('#SVGID_4_'); fill: none; stroke: rgb(55, 52, 53); stroke-width: 0.2398; stroke-miterlimit: 2.6131;" transform="matrix(1, 0, 0, 1, 0, 0)"/><path d="M 66.599998 51.599998 L 71.599998 62.799999" class="st12" style="clip-path: url('#SVGID_4_'); fill: none; stroke: rgb(55, 52, 53); stroke-width: 0.2398; stroke-miterlimit: 2.6131;" transform="matrix(1, 0, 0, 1, 0, 0)"/><path d="M 66.599998 51.599998 L 70.900002 63.099998" class="st12" style="clip-path: url('#SVGID_4_'); fill: none; stroke: rgb(55, 52, 53); stroke-width: 0.2398; stroke-miterlimit: 2.6131;" transform="matrix(1, 0, 0, 1, 0, 0)"/><path d="M 66.599998 51.599998 L 70.199997 63.299999" class="st12" style="clip-path: url('#SVGID_4_'); fill: none; stroke: rgb(55, 52, 53); stroke-width: 0.2398; stroke-miterlimit: 2.6131;" transform="matrix(1, 0, 0, 1, 0, 0)"/><path d="M 66.599998 51.599998 L 69.5 63.5" class="st12" style="clip-path: url('#SVGID_4_'); fill: none; stroke: rgb(55, 52, 53); stroke-width: 0.2398; stroke-miterlimit: 2.6131;" transform="matrix(1, 0, 0, 1, 0, 0)"/><path d="M 66.599998 51.599998 L 68.800003 63.700001" class="st12" style="clip-path: url('#SVGID_4_'); fill: none; stroke: rgb(55, 52, 53); stroke-width: 0.2398; stroke-miterlimit: 2.6131;" transform="matrix(1, 0, 0, 1, 0, 0)"/><path d="M 66.599998 51.599998 L 68.099998 63.799999" class="st12" style="clip-path: url('#SVGID_4_'); fill: none; stroke: rgb(55, 52, 53); stroke-width: 0.2398; stroke-miterlimit: 2.6131;" transform="matrix(1, 0, 0, 1, 0, 0)"/><path d="M 66.599998 51.599998 L 67.300003 63.799999" class="st12" style="clip-path: url('#SVGID_4_'); fill: none; stroke: rgb(55, 52, 53); stroke-width: 0.2398; stroke-miterlimit: 2.6131;" transform="matrix(1, 0, 0, 1, 0, 0)"/><path d="M 66.599998 51.599998 L 66.599998 63.900002" class="st12" style="clip-path: url('#SVGID_4_'); fill: none; stroke: rgb(55, 52, 53); stroke-width: 0.2398; stroke-miterlimit: 2.6131;" transform="matrix(1, 0, 0, 1, 0, 0)"/><path class="st13" d="M72.4,82.4c0,0-1.1,0.5-0.6,1.8c0.5,1.3,4.8,9.7,4.8,9.7s0.4,2.6,4.7,4.2L91.8,120h16.9L90.4,94.8L90.1,84&#10;&#9;&#9;c0,0,0.8-3.1-2.2-5.9l-0.1,5.4l-0.4-5.9l-3.3-2l-0.8,0.2l0.4,2.4l0.7-0.1l-0.2,5.4l-1.2-7.7c0,0-1.1-1.5-1.4-1.6&#10;&#9;&#9;c-0.4-0.1-3.3,1.2-3.3,1.2s0,1.2,0.9,1.2c0.9,0,1-0.1,1-0.1l0.8,6.8l-6-9.1c0,0-1.9-1-2.3,0.7c0,0-0.2,0.5,0.8,2&#10;&#9;&#9;c1,1.5,4.4,8.4,4.4,8.4s0.3,1.5-0.2,1.8C77.2,87.4,73.1,81.8,72.4,82.4" style="opacity: 0.15; clip-path: url('#SVGID_2_'); fill-rule: evenodd; clip-rule: evenodd; fill: rgb(99, 93, 84);" transform="matrix(1, 0, 0, 1, 0, 0)"/><path class="st13" d="M66.2,82.9c0,0,1.1,0.5,0.6,1.8C66.3,86,62,94.4,62,94.4s-0.4,2.6-4.7,4.2L48.5,120H32.6l15.6-24.7l0.3-10.8&#10;&#9;&#9;c0,0-0.8-3.1,2.2-5.9l0.1,5.4l0.4-5.9l3.3-2l0.8,0.2l-0.4,2.4l-0.7-0.1l0.2,5.4l1.2-7.7c0,0,1.1-1.5,1.4-1.6&#10;&#9;&#9;c0.4-0.1,3.3,1.2,3.3,1.2s0,1.2-0.9,1.2c-0.9,0-1-0.1-1-0.1l-0.8,6.8l6-9.1c0,0,1.9-1,2.3,0.7c0,0,0.2,0.5-0.8,2&#10;&#9;&#9;c-1,1.5-4.4,8.4-4.4,8.4s-0.3,1.5,0.2,1.8C61.4,87.9,65.5,82.3,66.2,82.9" style="opacity: 0.15; clip-path: url('#SVGID_2_'); fill-rule: evenodd; clip-rule: evenodd; fill: rgb(99, 93, 84);" transform="matrix(1, 0, 0, 1, 0, 0)"/><path class="st14" d="M69.4,82.4c0,0-1.1,0.5-0.6,1.8c0.5,1.3,4.8,9.7,4.8,9.7s0.4,2.6,4.7,4.2L88.7,120h16.9L87.3,94.8L87.1,84&#10;&#9;&#9;c0,0,0.8-3.1-2.2-5.9l-0.1,5.4l-0.4-5.9l-3.3-2l-0.8,0.2l0.4,2.4l0.7-0.1l-0.2,5.4L80,75.9c0,0-1.1-1.5-1.4-1.6&#10;&#9;&#9;c-0.4-0.1-3.3,1.2-3.3,1.2s0,1.2,0.9,1.2c0.9,0,1-0.1,1-0.1l0.8,6.8l-6-9.1c0,0-1.9-1-2.3,0.7c0,0-0.2,0.5,0.8,2&#10;&#9;&#9;c1,1.5,4.4,8.4,4.4,8.4s0.3,1.5-0.2,1.8C74.2,87.4,70,81.8,69.4,82.4" style="clip-path: url('#SVGID_2_'); fill-rule: evenodd; clip-rule: evenodd; fill: rgb(242, 190, 150);" transform="matrix(1, 0, 0, 1, 0, 0)"/><path class="st14" d="M63.1,82.9c0,0,1.1,0.5,0.6,1.8c-0.5,1.3-4.8,9.7-4.8,9.7s-0.4,2.6-4.7,4.2L45.4,120H29.6l15.6-24.7l0.3-10.8&#10;&#9;&#9;c0,0-0.8-3.1,2.2-5.9l0.1,5.4l0.4-5.9l3.3-2l0.8,0.2l-0.4,2.4L51,78.7l0.2,5.4l1.2-7.7c0,0,1.1-1.5,1.4-1.6&#10;&#9;&#9;c0.4-0.1,3.3,1.2,3.3,1.2s0,1.2-0.9,1.2c-0.9,0-1-0.1-1-0.1l-0.8,6.8l6-9.1c0,0,1.9-1,2.3,0.7c0,0,0.2,0.5-0.8,2&#10;&#9;&#9;c-1,1.5-4.4,8.4-4.4,8.4s-0.3,1.5,0.2,1.8C58.3,87.9,62.4,82.3,63.1,82.9" style="clip-path: url('#SVGID_2_'); fill-rule: evenodd; clip-rule: evenodd; fill: rgb(242, 190, 150);" transform="matrix(1, 0, 0, 1, 0, 0)"/><path class="st3" d="M103.1,46.7c0,0,0.9,1.8-0.9,2.7c-2.6,1.3-3.9,1.9-6.4-0.2c-1.6-1.3-2.2-2.9-1.3-4.5c0.9-1.5,1.7-2.7,2.3-2.8&#10;&#9;&#9;c0.6-0.2,1.7-0.2,2.6,0.6C100.4,43.2,102,44.4,103.1,46.7" style="clip-path: url('#SVGID_2_'); fill-rule: evenodd; clip-rule: evenodd; fill: rgb(243, 166, 166);" transform="matrix(1, 0, 0, 1, 0, 0)"/><path class="st5" d="M103.1,46.7c0,0,0.9,1.8-0.9,2.7c-2.6,1.3-3.9,1.9-6.4-0.2c-1.6-1.3-2.2-2.9-1.3-4.5c0.9-1.5,1.7-2.7,2.3-2.8&#10;&#9;&#9;c0.6-0.2,1.7-0.2,2.6,0.6C100.4,43.2,102,44.4,103.1,46.7 M104,46.7c0,0,1,2.1-1,3.2c-3.1,1.6-4.6,2.2-7.6-0.3&#10;&#9;&#9;c-1.9-1.6-2.6-3.5-1.5-5.3c0.7-1.2,1.4-2.2,1.9-2.8l-0.3-1l1.1-1l2.1,1.6c0.3,0.1,0.6,0.3,0.9,0.6C100.7,42.6,102.6,44,104,46.7z" style="clip-path: url('#SVGID_2_'); fill-rule: evenodd; clip-rule: evenodd; fill: rgb(77, 77, 77);" transform="matrix(1, 0, 0, 1, 0, 0)"/><path class="st3" d="M107.1,50.2c0,0-1.9-0.7-2.6,1.1c-1,2.7-1.4,4.1,0.9,6.4c1.5,1.4,3.1,1.9,4.6,0.8c1.4-1.1,2.5-2,2.6-2.6&#10;&#9;&#9;c0.1-0.6,0-1.7-0.9-2.5C110.8,52.6,109.5,51.1,107.1,50.2" style="clip-path: url('#SVGID_2_'); fill-rule: evenodd; clip-rule: evenodd; fill: rgb(243, 166, 166);" transform="matrix(1, 0, 0, 1, 0, 0)"/><path class="st5" d="M107.1,50.2c0,0-1.9-0.7-2.6,1.1c-1,2.7-1.4,4.1,0.9,6.4c1.5,1.4,3.1,1.9,4.6,0.8c1.4-1.1,2.5-2,2.6-2.6&#10;&#9;&#9;c0.1-0.6,0-1.7-0.9-2.5C110.8,52.6,109.5,51.1,107.1,50.2 M107,49.4c0,0-2.2-0.8-3,1.3c-1.2,3.2-1.7,4.9,1.1,7.5&#10;&#9;&#9;c1.8,1.7,3.7,2.2,5.4,0.9c1.1-0.8,2-1.6,2.5-2.2l1,0.2l0.9-1.2l-1.8-2c-0.2-0.3-0.4-0.6-0.7-0.8C111.4,52.2,109.8,50.5,107,49.4z" style="clip-path: url('#SVGID_2_'); fill-rule: evenodd; clip-rule: evenodd; fill: rgb(77, 77, 77);" transform="matrix(1, 0, 0, 1, 0, 0)"/><path class="st5" d="M107.7,49.8c-1.6-1-3-2.2-4.2-3.8l0,0c0.1,0.1,0.1,0.2,0.2,0.3c0,0,1,1.8,0,2.9c0.6,0.1,0.8,0.4,0.9,0.8&#10;&#9;&#9;c1-1.1,2.9-0.3,2.9-0.3C107.4,49.8,107.5,49.8,107.7,49.8C107.6,49.9,107.6,49.9,107.7,49.8" style="clip-path: url('#SVGID_2_'); fill-rule: evenodd; clip-rule: evenodd; fill: rgb(77, 77, 77);" transform="matrix(1, 0, 0, 1, 0, 0)"/><path class="st15" d="M100.9,74.3c1.7-2.6,5.1-3.4,7.8-1.7c2.6,1.7,3.4,5.1,1.7,7.8c-1.7,2.6-5.1,3.4-7.8,1.7&#10;&#9;&#9;C100,80.4,99.2,76.9,100.9,74.3" style="clip-path: url('#SVGID_2_'); fill-rule: evenodd; clip-rule: evenodd; fill: rgb(163, 117, 86);" transform="matrix(1, 0, 0, 1, 0, 0)"/><path class="st16" d="M100.9,74.3c1.7-2.6,5.1-3.4,7.8-1.7c2.6,1.7,3.4,5.1,1.7,7.8c-0.1,0.2-0.2,0.4-0.4,0.5l0,0&#10;&#9;&#9;c-1.1-0.1-0.2-1-0.4-1.2c-0.3-0.4,0.2-0.5,0.1-0.6c-0.1-0.2,0.6-0.6,0.3-0.8c-0.4-0.3,0.3-0.9,0.2-1c-0.3-0.2-0.8-0.1-0.6-0.6&#10;&#9;&#9;c0.1-0.3,0.2-0.4,0.1-0.5c-0.4-0.2-0.4-0.6-0.1-0.9c-0.3-0.2-0.7-0.3-0.5-0.7c-0.1-0.1-0.5-0.6-0.6-0.7c-0.1-0.2,0-0.2-0.1-0.2&#10;&#9;&#9;c-0.2,0-0.8-0.3-1-0.4c-0.1-0.1-0.5,0.2-0.8-0.1c-0.5-0.5-0.8-0.3-0.9-0.3c-0.4,0.6-0.4,0.4-1,0c-0.2,0.3-0.5,0.5-0.6,0.7&#10;&#9;&#9;c-0.2,0.4-0.5,0.5-0.5,0.5c-0.1-0.1-0.3,0-0.4,0c-0.1,0.2-0.1,0.3-0.3,0.3c-0.4,0.1,0.1-0.1-0.2,0c-0.2,0.1-0.3,0.7-0.5,0.7&#10;&#9;&#9;c-0.7,0.2-0.5,0-0.5,0.9c0,0.6-0.5,1.2-1.1,1.4c-0.1,0-0.1,0-0.1,0c-0.1,0.1-0.3-0.1-0.5-0.2C100,76.1,100.3,75.2,100.9,74.3" style="clip-path: url('#SVGID_2_'); fill-rule: evenodd; clip-rule: evenodd; fill: rgb(191, 130, 90);" transform="matrix(1, 0, 0, 1, 0, 0)"/><path class="st3" d="M99.9,84.2l1.5-2.3l2,1.2l-1.5,2.3c-0.3,0.5-1.1,0.7-1.6,0.4h0C99.7,85.5,99.5,84.8,99.9,84.2" style="clip-path: url('#SVGID_2_'); fill-rule: evenodd; clip-rule: evenodd; fill: rgb(230, 230, 230);" transform="matrix(1, 0, 0, 1, 0, 0)"/><path class="st2" d="M13.8,27.2l11.6-5.4l9.1,19.4l-11.6,5.4c-1.1,0.5-2.4,0-3-1.1l-7.2-15.4C12.2,29.1,12.7,27.7,13.8,27.2" style="clip-path: url('#SVGID_2_'); fill-rule: evenodd; clip-rule: evenodd; fill: rgb(224, 159, 61);" transform="matrix(1, 0, 0, 1, 0, 0)"/><path d="M 34 42.5 L 34.400001525878906 41.20000076293945 L 33.900001525878906 41.5 L 33.400001525878906 42.70000076293945 Z" class="st2" style="clip-path: url('#SVGID_2_'); fill-rule: evenodd; clip-rule: evenodd; fill: rgb(224, 159, 61);" transform="matrix(1, 0, 0, 1, 0, 0)"/><path d="M 15.199999809265137 37.79999923706055 L 15.899999618530273 37 L 16.700000762939453 38.70000076293945 L 16 39.5 Z" class="st16" style="clip-path: url('#SVGID_2_'); fill-rule: evenodd; clip-rule: evenodd; fill: rgb(191, 130, 90);" transform="matrix(1, 0, 0, 1, 0, 0)"/><path d="M 16.1 36.099998 H 20.1 V 37.999998 H 16.1 V 36.099998 Z" transform="matrix(0.9065000414848328, -0.4221000075340271, 0.4221000075340271, 0.9065000414848328, -13.94499969482419, 11.093299865722656)" class="st16" style="clip-path: url('#SVGID_2_'); fill-rule: evenodd; clip-rule: evenodd; fill: rgb(191, 130, 90);"/><path class="st15" d="M19,36.1c0.2-0.1,0.5,0,0.6,0.2c0.1,0.2,0,0.5-0.2,0.6c-0.2,0.1-0.5,0-0.6-0.2C18.6,36.5,18.7,36.2,19,36.1" style="clip-path: url('#SVGID_2_'); fill-rule: evenodd; clip-rule: evenodd; fill: rgb(163, 117, 86);" transform="matrix(1, 0, 0, 1, 0, 0)"/>
<path d="M 60.12480545043945 68.86115264892578" style="fill: rgb(243, 166, 166); fill-opacity: 1; stroke: rgb(0, 0, 0); stroke-opacity: 1; stroke-width: 0; paint-order: fill;"/><path d="M 100.06240844726562 48.14352798461914" style="fill: rgb(255, 207, 217); fill-opacity: 1; stroke: rgb(0, 0, 0); stroke-opacity: 1; stroke-width: 0; paint-order: fill;"/><path d="M 107.8003158569336 56.87987518310547" style="fill: rgb(230, 230, 230); fill-opacity: 1; stroke: rgb(0, 0, 0); stroke-opacity: 1; stroke-width: 0; paint-order: fill;"/></svg>